<?xml version="1.0" encoding="utf-8"?>
<!-- Generator: Adobe Illustrator 16.0.0, SVG Export Plug-In . SVG Version: 6.00 Build 0)  -->
<!DOCTYPE svg PUBLIC "-//W3C//DTD SVG 1.1//EN" "http://www.w3.org/Graphics/SVG/1.1/DTD/svg11.dtd">
<svg version="1.1" id="图层_1" xmlns="http://www.w3.org/2000/svg" xmlns:xlink="http://www.w3.org/1999/xlink" x="0px" y="0px"
	 width="214.958px" height="149.561px" viewBox="0 0 214.958 149.561" enable-background="new 0 0 214.958 149.561"
	 xml:space="preserve">
<path fill="#0C0C0C" d="M199.556,11.425c-5.823-5.81-8.681-5.837-14.409-0.103c-30.211,30.239-60.417,60.483-90.625,90.724
	c-5.313,5.32-5.427,5.321-10.602,0.142C65.796,84.043,47.699,65.87,29.509,47.791c-1.787-1.775-4.141-2.979-6.397-4.564
	c-2.208,1.321-4.012,2.089-5.419,3.313c-2.426,2.111-4.611,4.5-6.886,6.783c-5.677,5.696-5.7,8.364-0.074,13.997
	c23.57,23.602,47.146,47.197,70.722,70.792c5.886,5.891,8.838,5.889,14.723-0.003c35.951-35.995,71.9-71.99,107.85-107.986
	c0.594-0.595,1.21-1.17,1.775-1.792c3.491-3.838,3.51-6.916-0.021-10.646C203.76,15.547,201.64,13.504,199.556,11.425z"/>
<path fill="#FFFFFF" d="M202.914,5.624c-7.798-7.564-13.939-7.509-21.705,0.235c-24.014,23.949-48.036,47.892-72.021,71.87
	c-6.636,6.634-13.156,13.386-20.761,21.135c-1.364-1.915-2.106-3.322-3.178-4.405C67.997,77.026,50.73,59.608,33.405,42.249
	c-6.518-6.531-14.153-6.54-20.767-0.179c-2.625,2.526-5.196,5.111-7.732,7.727c-6.533,6.741-6.575,14.463,0.082,21.145
	c24.529,24.624,49.092,49.216,73.7,73.761c6.534,6.517,13.787,6.445,20.29-0.021c9.341-9.288,18.628-18.632,27.938-27.953
	c27.534-27.565,55.075-55.122,82.595-82.702c7.367-7.383,7.248-14.935-0.259-22.254C207.143,9.717,205.027,7.673,202.914,5.624z
	 M205.802,28.331c-0.565,0.621-1.182,1.197-1.775,1.792c-35.949,35.996-71.898,71.991-107.85,107.986
	c-5.885,5.892-8.837,5.894-14.723,0.003c-23.576-23.595-47.152-47.19-70.722-70.792c-5.626-5.633-5.604-8.301,0.074-13.997
	c2.275-2.284,4.46-4.672,6.886-6.783c1.407-1.225,3.211-1.993,5.419-3.313c2.256,1.585,4.61,2.79,6.397,4.564
	c18.19,18.08,36.287,36.253,54.412,54.397c5.174,5.18,5.288,5.178,10.602-0.142c30.208-30.241,60.414-60.485,90.625-90.724
	c5.729-5.734,8.586-5.707,14.409,0.103c2.084,2.079,4.204,4.122,6.226,6.259C209.312,21.416,209.293,24.493,205.802,28.331z"/>
</svg>
