<?xml version="1.0" standalone="no"?><!DOCTYPE svg PUBLIC "-//W3C//DTD SVG 1.1//EN" "http://www.w3.org/Graphics/SVG/1.1/DTD/svg11.dtd"><svg t="1588954339180" class="icon" viewBox="0 0 1024 1024" version="1.1" xmlns="http://www.w3.org/2000/svg" p-id="565" xmlns:xlink="http://www.w3.org/1999/xlink" width="128" height="128"><defs><style type="text/css"></style></defs><path d="M512 339.2c96 0 172.8 76.8 172.8 172.8S608 684.8 512 684.8 339.2 608 339.2 512 416 339.2 512 339.2z m396.8 57.6c64 0 115.2 51.2 115.2 115.2s-51.2 115.2-115.2 115.2S793.6 576 793.6 512s51.2-115.2 115.2-115.2z m-793.6 0c64 0 115.2 51.2 115.2 115.2s-51.2 115.2-115.2 115.2S0 576 0 512s51.2-115.2 115.2-115.2z" fill="#515151" p-id="566"></path></svg>