<?xml version="1.0" standalone="no"?><!DOCTYPE svg PUBLIC "-//W3C//DTD SVG 1.1//EN" "http://www.w3.org/Graphics/SVG/1.1/DTD/svg11.dtd"><svg t="1589292817470" class="icon" viewBox="0 0 1024 1024" version="1.1" xmlns="http://www.w3.org/2000/svg" p-id="4784" xmlns:xlink="http://www.w3.org/1999/xlink" width="128" height="128"><defs><style type="text/css"></style></defs><path d="M512 235.52c118.57408 0 215.04 96.46592 215.04 215.04v263.86432l19.38944 20.67968 40.43776 43.136H237.1328l40.43776-43.136L296.96 714.42432V450.56c0-118.57408 96.46592-215.04 215.04-215.04m0-71.68c-158.35136 0-286.72 128.36864-286.72 286.72v235.52l-56.60672 60.38016C131.88608 785.69984 159.70816 849.92 213.49888 849.92h597.00736c53.7856 0 81.60768-64.22016 44.82048-103.45984L798.72 686.08V450.56c0-158.35136-128.36864-286.72-286.72-286.72zM583.68 890.88H440.32a35.84 35.84 0 1 0 0 71.68h143.36a35.84 35.84 0 1 0 0-71.68zM537.6 61.44H486.4a35.84 35.84 0 1 0 0 71.68h51.2a35.84 35.84 0 1 0 0-71.68z" fill="#8a8a8a" p-id="4785"></path></svg>